<svg width="974" height="744" viewBox="0 0 974 744" fill="none" xmlns="http://www.w3.org/2000/svg">
<path d="M370.06 576C344.622 576 324 596.622 324 622.06C324 641.41 336.363 658.287 353.272 665.106C353.702 657.358 358.007 631.53 389.43 623.351C389.861 608.285 393.735 600.536 402.775 589.775C394.436 581.412 382.802 576 370.06 576Z" fill="#DADCDF"/>
<path d="M423.868 619.046C423.868 620.473 422.711 621.629 421.285 621.629C419.858 621.629 418.702 620.473 418.702 619.046C418.702 617.62 419.858 616.464 421.285 616.464C422.711 616.464 423.868 617.62 423.868 619.046Z" fill="#B9A86D"/>
<circle cx="431.616" cy="611.298" r="5.16556" fill="#B9A86D"/>
<circle cx="444.099" cy="596.232" r="9.90066" fill="#B9A86D"/>
<path d="M398.47 713.77C423.908 713.77 444.529 693.149 444.529 667.711C444.529 667.279 444.541 666.848 444.529 666.419C430.652 669.3 414.179 665.787 402.774 654.366C407.079 650.492 414.827 640.592 416.119 625.095C406.218 620.79 395.457 621.221 389.43 622.538C368.32 626.739 352.41 645.367 352.41 667.711C352.41 693.149 373.032 713.77 398.47 713.77Z" fill="#DADCDF"/>
<line x1="344.663" y1="666.286" x2="329.166" y2="666.286" stroke="#080D1E" stroke-width="1.5"/>
<line x1="348.696" y1="672.887" x2="339.226" y2="684.94" stroke="#080D1E" stroke-width="1.5"/>
<line x1="344.061" y1="671.406" x2="327.703" y2="677.432" stroke="#080D1E" stroke-width="1.5"/>
<path d="M890.06 59C864.622 59 844 79.6216 844 105.06C844 124.41 856.363 141.287 873.272 148.106C873.702 140.358 878.007 114.53 909.43 106.351C909.861 91.2848 913.735 83.5364 922.775 72.7748C914.436 64.4121 902.802 59 890.06 59Z" fill="black"/>
<path d="M943.868 102.046C943.868 103.473 942.711 104.629 941.285 104.629C939.858 104.629 938.702 103.473 938.702 102.046C938.702 100.62 939.858 99.4636 941.285 99.4636C942.711 99.4636 943.868 100.62 943.868 102.046Z" fill="#B9A86D"/>
<circle cx="951.616" cy="94.298" r="5.16556" fill="#B9A86D"/>
<circle cx="964.099" cy="79.2318" r="9.90066" fill="#B9A86D"/>
<path d="M918.47 196.77C943.908 196.77 964.529 176.149 964.529 150.711C964.529 150.279 964.541 149.848 964.529 149.419C950.652 152.3 934.179 148.787 922.774 137.366C927.079 133.492 934.827 123.591 936.119 108.095C926.218 103.79 915.457 104.221 909.43 105.538C888.32 109.739 872.41 128.367 872.41 150.711C872.41 176.149 893.032 196.77 918.47 196.77Z" fill="#DADCDF"/>
<line x1="864.663" y1="149.286" x2="849.166" y2="149.286" stroke="#080D1E" stroke-width="1.5"/>
<line x1="868.696" y1="155.887" x2="859.226" y2="167.94" stroke="#080D1E" stroke-width="1.5"/>
<line x1="864.061" y1="154.406" x2="847.703" y2="160.432" stroke="#080D1E" stroke-width="1.5"/>
<path d="M777.06 363C751.622 363 731 383.622 731 409.06C731 428.41 743.363 445.287 760.272 452.106C760.702 444.358 765.007 418.53 796.43 410.351C796.861 395.285 800.735 387.536 809.775 376.775C801.436 368.412 789.802 363 777.06 363Z" fill="#DADCDF"/>
<path d="M830.868 406.046C830.868 407.473 829.711 408.629 828.285 408.629C826.858 408.629 825.702 407.473 825.702 406.046C825.702 404.62 826.858 403.464 828.285 403.464C829.711 403.464 830.868 404.62 830.868 406.046Z" fill="#B9A86D"/>
<circle cx="838.616" cy="398.298" r="5.16556" fill="#B9A86D"/>
<circle cx="851.099" cy="383.232" r="9.90066" fill="#B9A86D"/>
<path d="M805.47 500.77C830.908 500.77 851.529 480.149 851.529 454.711C851.529 454.279 851.541 453.848 851.529 453.419C837.652 456.3 821.179 452.787 809.774 441.366C814.079 437.492 821.827 427.592 823.119 412.095C813.218 407.79 802.457 408.221 796.43 409.538C775.32 413.739 759.41 432.367 759.41 454.711C759.41 480.149 780.032 500.77 805.47 500.77Z" fill="#DADCDF"/>
<line x1="751.663" y1="453.286" x2="736.166" y2="453.286" stroke="#080D1E" stroke-width="1.5"/>
<line x1="755.696" y1="459.887" x2="746.226" y2="471.94" stroke="#080D1E" stroke-width="1.5"/>
<line x1="751.061" y1="458.406" x2="734.703" y2="464.432" stroke="#080D1E" stroke-width="1.5"/>
<path d="M636.06 0C610.622 0 590 20.6216 590 46.0596C590 65.4101 602.363 82.2866 619.272 89.106C619.702 81.3576 624.007 55.5298 655.43 47.351C655.861 32.2848 659.735 24.5364 668.775 13.7748C660.436 5.41209 648.802 0 636.06 0Z" fill="#DADCDF"/>
<path d="M689.868 43.0463C689.868 44.4728 688.711 45.6291 687.285 45.6291C685.858 45.6291 684.702 44.4728 684.702 43.0463C684.702 41.6199 685.858 40.4636 687.285 40.4636C688.711 40.4636 689.868 41.6199 689.868 43.0463Z" fill="#B9A86D"/>
<circle cx="697.616" cy="35.298" r="5.16556" fill="#B9A86D"/>
<circle cx="710.099" cy="20.2318" r="9.90066" fill="#B9A86D"/>
<path d="M664.47 137.77C689.908 137.77 710.529 117.149 710.529 91.7108C710.529 91.2789 710.541 90.8484 710.529 90.4194C696.652 93.2996 680.179 89.7867 668.774 78.3663C673.079 74.4922 680.827 64.5915 682.119 49.0948C672.218 44.7902 661.457 45.2207 655.43 46.5379C634.32 50.7387 618.41 69.3667 618.41 91.7108C618.41 117.149 639.032 137.77 664.47 137.77Z" fill="#DADCDF"/>
<line x1="610.663" y1="90.2864" x2="595.166" y2="90.2864" stroke="#080D1E" stroke-width="1.5"/>
<line x1="614.696" y1="96.8872" x2="605.226" y2="108.94" stroke="#080D1E" stroke-width="1.5"/>
<line x1="610.061" y1="95.4057" x2="593.703" y2="101.432" stroke="#080D1E" stroke-width="1.5"/>
<path d="M187.06 46C161.622 46 141 66.6216 141 92.0596C141 111.41 153.363 128.287 170.272 135.106C170.702 127.358 175.007 101.53 206.43 93.351C206.861 78.2848 210.735 70.5364 219.775 59.7748C211.436 51.4121 199.802 46 187.06 46Z" fill="#B9A86D"/>
<path d="M240.868 89.0463C240.868 90.4728 239.711 91.6291 238.285 91.6291C236.858 91.6291 235.702 90.4728 235.702 89.0463C235.702 87.6199 236.858 86.4636 238.285 86.4636C239.711 86.4636 240.868 87.6199 240.868 89.0463Z" fill="#B9A86D"/>
<circle cx="248.616" cy="81.298" r="5.16556" fill="#B9A86D"/>
<circle cx="261.099" cy="66.2318" r="9.90066" fill="#B9A86D"/>
<path d="M215.47 183.77C240.908 183.77 261.529 163.149 261.529 137.711C261.529 137.279 261.541 136.848 261.529 136.419C247.652 139.3 231.179 135.787 219.774 124.366C224.079 120.492 231.827 110.592 233.119 95.0948C223.218 90.7902 212.457 91.2207 206.43 92.5379C185.32 96.7387 169.41 115.367 169.41 137.711C169.41 163.149 190.032 183.77 215.47 183.77Z" fill="#DADCDF"/>
<line x1="161.663" y1="136.286" x2="146.166" y2="136.286" stroke="#080D1E" stroke-width="1.5"/>
<line x1="165.696" y1="142.887" x2="156.226" y2="154.94" stroke="#080D1E" stroke-width="1.5"/>
<line x1="161.061" y1="141.406" x2="144.703" y2="147.432" stroke="#080D1E" stroke-width="1.5"/>
<path d="M159.06 329C133.622 329 113 349.622 113 375.06C113 394.41 125.363 411.287 142.272 418.106C142.702 410.358 147.007 384.53 178.43 376.351C178.861 361.285 182.735 353.536 191.775 342.775C183.436 334.412 171.802 329 159.06 329Z" fill="#DADCDF"/>
<path d="M212.868 372.046C212.868 373.473 211.711 374.629 210.285 374.629C208.858 374.629 207.702 373.473 207.702 372.046C207.702 370.62 208.858 369.464 210.285 369.464C211.711 369.464 212.868 370.62 212.868 372.046Z" fill="#B9A86D"/>
<circle cx="220.616" cy="364.298" r="5.16556" fill="#B9A86D"/>
<circle cx="233.099" cy="349.232" r="9.90066" fill="#B9A86D"/>
<path d="M187.47 466.77C212.908 466.77 233.529 446.149 233.529 420.711C233.529 420.279 233.541 419.848 233.529 419.419C219.652 422.3 203.179 418.787 191.774 407.366C196.079 403.492 203.827 393.592 205.119 378.095C195.218 373.79 184.457 374.221 178.43 375.538C157.32 379.739 141.41 398.367 141.41 420.711C141.41 446.149 162.032 466.77 187.47 466.77Z" fill="#DADCDF"/>
<line x1="133.663" y1="419.286" x2="118.166" y2="419.286" stroke="#080D1E" stroke-width="1.5"/>
<line x1="137.696" y1="425.887" x2="128.226" y2="437.94" stroke="#080D1E" stroke-width="1.5"/>
<line x1="133.061" y1="424.406" x2="116.703" y2="430.432" stroke="#080D1E" stroke-width="1.5"/>
<path d="M46.0596 606C20.6216 606 0 626.622 0 652.06C0 671.41 12.3632 688.287 29.2715 695.106C29.702 687.358 34.0066 661.53 65.4305 653.351C65.8609 638.285 69.7351 630.536 78.7748 619.775C70.436 611.412 58.8025 606 46.0596 606Z" fill="#B9A86D"/>
<path d="M99.8677 649.046C99.8677 650.473 98.7114 651.629 97.2849 651.629C95.8585 651.629 94.7021 650.473 94.7021 649.046C94.7021 647.62 95.8585 646.464 97.2849 646.464C98.7114 646.464 99.8677 647.62 99.8677 649.046Z" fill="#B9A86D"/>
<circle cx="107.616" cy="641.298" r="5.16556" fill="#B9A86D"/>
<circle cx="120.099" cy="626.232" r="9.90066" fill="#B9A86D"/>
<path d="M74.4698 743.77C99.9078 743.77 120.529 723.149 120.529 697.711C120.529 697.279 120.541 696.848 120.529 696.419C106.652 699.3 90.1787 695.787 78.7744 684.366C83.079 680.492 90.8274 670.592 92.1188 655.095C82.2181 650.79 71.4565 651.221 65.43 652.538C44.3205 656.739 28.4102 675.367 28.4102 697.711C28.4102 723.149 49.0317 743.77 74.4698 743.77Z" fill="#DADCDF"/>
<line x1="20.6631" y1="696.286" x2="5.1664" y2="696.286" stroke="#080D1E" stroke-width="1.5"/>
<line x1="24.6962" y1="702.887" x2="15.226" y2="714.94" stroke="#080D1E" stroke-width="1.5"/>
<line x1="20.061" y1="701.406" x2="3.70342" y2="707.432" stroke="#080D1E" stroke-width="1.5"/>
<path d="M475.06 271C449.622 271 429 291.622 429 317.06C429 336.41 441.363 353.287 458.272 360.106C458.702 352.358 463.007 326.53 494.43 318.351C494.861 303.285 498.735 295.536 507.775 284.775C499.436 276.412 487.802 271 475.06 271Z" fill="#DADCDF"/>
<path d="M528.868 314.046C528.868 315.473 527.711 316.629 526.285 316.629C524.858 316.629 523.702 315.473 523.702 314.046C523.702 312.62 524.858 311.464 526.285 311.464C527.711 311.464 528.868 312.62 528.868 314.046Z" fill="#B9A86D"/>
<circle cx="536.616" cy="306.298" r="5.16556" fill="#B9A86D"/>
<circle cx="549.099" cy="291.232" r="9.90066" fill="#B9A86D"/>
<path d="M503.47 408.77C528.908 408.77 549.529 388.149 549.529 362.711C549.529 362.279 549.541 361.848 549.529 361.419C535.652 364.3 519.179 360.787 507.774 349.366C512.079 345.492 519.827 335.592 521.119 320.095C511.218 315.79 500.457 316.221 494.43 317.538C473.32 321.739 457.41 340.367 457.41 362.711C457.41 388.149 478.032 408.77 503.47 408.77Z" fill="#DADCDF"/>
<line x1="449.663" y1="361.286" x2="434.166" y2="361.286" stroke="#080D1E" stroke-width="1.5"/>
<line x1="453.696" y1="367.887" x2="444.226" y2="379.94" stroke="#080D1E" stroke-width="1.5"/>
<line x1="449.061" y1="366.406" x2="432.703" y2="372.432" stroke="#080D1E" stroke-width="1.5"/>
</svg>
