<svg width="151" height="161" viewBox="0 0 151 161" fill="none" xmlns="http://www.w3.org/2000/svg">
<path d="M53.5 0C23.9528 0 0 23.9528 0 53.5C0 75.9763 14.3603 95.579 34 103.5C34.5 94.5 39.5 64.5 76 55C76.5 37.5 81 28.5 91.5 16C81.8141 6.28635 68.3013 0 53.5 0Z" fill="#D9D9D9"/>
<path d="M116 50C116 51.6569 114.657 53 113 53C111.343 53 110 51.6569 110 50C110 48.3431 111.343 47 113 47C114.657 47 116 48.3431 116 50Z" fill="#B9A86D"/>
<circle cx="125" cy="41" r="6" fill="#B9A86D"/>
<circle cx="139.5" cy="23.5" r="11.5" fill="#B9A86D"/>
<path d="M86.5 160.026C116.047 160.026 140 136.073 140 106.526C140 106.024 140.014 105.524 140 105.026C123.881 108.371 104.747 104.291 91.5 91.0255C96.5 86.5255 105.5 75.0255 107 57.0255C95.5 52.0255 83 52.5255 76 54.0556C51.4805 58.935 33 80.5721 33 106.526C33 136.073 56.9528 160.026 86.5 160.026Z" fill="#D9D9D9"/>
<line x1="24" y1="104.75" x2="6" y2="104.75" stroke="black" stroke-width="1.5"/>
<line x1="28.5897" y1="112.463" x2="17.5897" y2="126.463" stroke="black" stroke-width="1.5"/>
<line x1="23.2593" y1="110.704" x2="4.25928" y2="117.704" stroke="black" stroke-width="1.5"/>
</svg>
